<svg xmlns="http://www.w3.org/2000/svg" xmlns:xlink="http://www.w3.org/1999/xlink" width="500" zoomAndPan="magnify" viewBox="0 0 375 374.999991" height="500" preserveAspectRatio="xMidYMid meet" version="1.0"><defs><g/><clipPath id="7070769b47"><path d="M 219 78.613281 L 292 78.613281 L 292 182 L 219 182 Z M 219 78.613281 " clip-rule="nonzero"/></clipPath><clipPath id="9cac8ebfa8"><path d="M 191 145 L 320 145 L 320 234.613281 L 191 234.613281 Z M 191 145 " clip-rule="nonzero"/></clipPath><clipPath id="e8fc3a40aa"><path d="M 50.566406 90.757812 L 181.816406 90.757812 L 181.816406 222.757812 L 50.566406 222.757812 Z M 50.566406 90.757812 " clip-rule="nonzero"/></clipPath></defs><g clip-path="url(#7070769b47)"><path fill="#ec6408" d="M 255.46875 78.636719 C 235.570312 78.636719 219.441406 94.761719 219.441406 114.65625 C 219.441406 128.707031 237.417969 160.28125 247.976562 177.613281 C 251.394531 183.226562 259.539062 183.226562 262.960938 177.613281 C 273.515625 160.28125 291.492188 128.707031 291.492188 114.65625 C 291.492188 94.761719 275.363281 78.636719 255.46875 78.636719 Z M 255.46875 136.921875 C 243.613281 136.921875 234.003906 127.3125 234.003906 115.460938 C 234.003906 103.613281 243.613281 94.003906 255.46875 94.003906 C 267.320312 94.003906 276.929688 103.613281 276.929688 115.460938 C 276.929688 127.3125 267.320312 136.921875 255.46875 136.921875 Z M 255.46875 136.921875 " fill-opacity="1" fill-rule="nonzero"/></g><path fill="#ec6408" d="M 267.296875 115.460938 C 267.296875 116.238281 267.21875 117.007812 267.070312 117.769531 C 266.917969 118.53125 266.691406 119.269531 266.394531 119.988281 C 266.097656 120.707031 265.734375 121.386719 265.304688 122.035156 C 264.871094 122.679688 264.382812 123.277344 263.832031 123.824219 C 263.28125 124.375 262.683594 124.863281 262.039062 125.296875 C 261.394531 125.726562 260.710938 126.09375 259.992188 126.390625 C 259.277344 126.6875 258.535156 126.910156 257.773438 127.0625 C 257.011719 127.214844 256.242188 127.289062 255.46875 127.289062 C 254.691406 127.289062 253.921875 127.214844 253.160156 127.0625 C 252.398438 126.910156 251.65625 126.6875 250.941406 126.390625 C 250.222656 126.09375 249.542969 125.726562 248.894531 125.296875 C 248.25 124.863281 247.652344 124.375 247.101562 123.824219 C 246.554688 123.277344 246.0625 122.679688 245.632812 122.035156 C 245.199219 121.386719 244.835938 120.707031 244.539062 119.988281 C 244.242188 119.269531 244.015625 118.53125 243.867188 117.769531 C 243.714844 117.007812 243.636719 116.238281 243.636719 115.460938 C 243.636719 114.6875 243.714844 113.917969 243.867188 113.15625 C 244.015625 112.394531 244.242188 111.65625 244.539062 110.9375 C 244.835938 110.21875 245.199219 109.539062 245.632812 108.890625 C 246.0625 108.246094 246.554688 107.648438 247.101562 107.101562 C 247.652344 106.550781 248.25 106.0625 248.894531 105.628906 C 249.542969 105.199219 250.222656 104.832031 250.941406 104.535156 C 251.65625 104.238281 252.398438 104.015625 253.160156 103.863281 C 253.921875 103.710938 254.691406 103.636719 255.46875 103.636719 C 256.242188 103.636719 257.011719 103.710938 257.773438 103.863281 C 258.535156 104.015625 259.277344 104.238281 259.992188 104.535156 C 260.710938 104.832031 261.394531 105.199219 262.039062 105.628906 C 262.683594 106.0625 263.28125 106.550781 263.832031 107.101562 C 264.382812 107.648438 264.871094 108.246094 265.304688 108.890625 C 265.734375 109.539062 266.097656 110.21875 266.394531 110.9375 C 266.691406 111.65625 266.917969 112.394531 267.070312 113.15625 C 267.21875 113.917969 267.296875 114.6875 267.296875 115.460938 Z M 267.296875 115.460938 " fill-opacity="1" fill-rule="nonzero"/><g clip-path="url(#9cac8ebfa8)"><path fill="#ec6408" d="M 319.535156 221.960938 L 308.777344 154.390625 C 307.925781 149.066406 303.339844 145.152344 297.945312 145.152344 L 286.019531 145.152344 C 284.691406 147.933594 283.285156 150.746094 281.835938 153.5625 L 289.964844 153.5625 C 294.34375 153.5625 298.074219 156.742188 298.757812 161.0625 L 301.320312 177.148438 L 297.363281 177.148438 C 288.574219 177.148438 280.195312 174.488281 273.132812 169.566406 C 271.742188 172.003906 270.371094 174.371094 269.046875 176.632812 C 269.808594 177.152344 270.585938 177.648438 271.375 178.125 L 253.664062 198.691406 L 251.554688 195.449219 C 247.632812 189.433594 240.996094 185.835938 233.816406 185.835938 L 223.296875 185.835938 L 239.648438 172.78125 C 238.316406 170.46875 236.953125 168.074219 235.582031 165.625 L 210.265625 185.835938 L 208.238281 185.835938 L 212.179688 161.0625 C 212.871094 156.742188 216.597656 153.5625 220.976562 153.5625 L 229.105469 153.5625 C 227.65625 150.746094 226.25 147.933594 224.921875 145.152344 L 212.996094 145.152344 C 207.601562 145.152344 203.011719 149.074219 202.164062 154.390625 L 191.402344 221.960938 C 190.347656 228.621094 195.488281 234.648438 202.234375 234.648438 L 308.703125 234.648438 C 315.445312 234.648438 320.59375 228.621094 319.535156 221.960938 Z M 278.910156 181.820312 C 284.710938 184.089844 290.949219 185.273438 297.359375 185.273438 L 302.613281 185.273438 L 305.285156 202.054688 L 261.484375 202.054688 Z M 212.238281 226.242188 C 206.757812 226.242188 202.578125 221.34375 203.441406 215.9375 L 206.941406 193.964844 L 233.808594 193.964844 C 238.238281 193.964844 242.324219 196.179688 244.738281 199.882812 L 261.921875 226.242188 Z M 298.699219 226.242188 L 271.613281 226.242188 L 261.148438 210.183594 L 306.574219 210.183594 L 307.492188 215.9375 C 308.355469 221.34375 304.179688 226.242188 298.699219 226.242188 Z M 298.699219 226.242188 " fill-opacity="1" fill-rule="nonzero"/></g><g clip-path="url(#e8fc3a40aa)"><path fill="#ec6408" d="M 88.277344 90.808594 L 143.929688 90.808594 C 154.285156 90.808594 163.707031 95.058594 170.542969 101.886719 C 177.390625 108.722656 181.636719 118.152344 181.636719 128.519531 L 181.636719 184.976562 C 181.636719 195.320312 177.390625 204.742188 170.5625 211.578125 L 170.542969 211.601562 C 163.695312 218.4375 154.273438 222.675781 143.941406 222.675781 L 88.277344 222.675781 C 77.910156 222.675781 68.476562 218.425781 61.644531 211.601562 L 61.386719 211.3125 C 54.710938 204.507812 50.566406 195.191406 50.566406 184.964844 L 50.566406 128.519531 C 50.566406 118.144531 54.808594 108.722656 61.644531 101.886719 C 68.476562 95.050781 77.902344 90.808594 88.277344 90.808594 Z M 148.769531 124.097656 L 148.84375 124.214844 L 172.023438 124.214844 C 171.089844 118.121094 168.179688 112.648438 163.996094 108.453125 C 158.84375 103.300781 151.742188 100.105469 143.929688 100.105469 L 134.410156 100.105469 Z M 138.046875 124.214844 L 123.613281 100.105469 L 91.957031 100.105469 L 106.5625 124.214844 Z M 95.757812 124.214844 L 81.636719 100.886719 C 76.472656 102.132812 71.847656 104.804688 68.210938 108.453125 C 64.023438 112.636719 61.128906 118.121094 60.183594 124.214844 Z M 172.34375 133.507812 L 59.863281 133.507812 L 59.863281 184.976562 C 59.863281 192.671875 62.960938 199.679688 67.972656 204.808594 L 68.210938 205.03125 C 73.359375 210.183594 80.476562 213.390625 88.277344 213.390625 L 143.929688 213.390625 C 151.742188 213.390625 158.84375 210.195312 163.984375 205.054688 L 164.007812 205.03125 C 169.148438 199.894531 172.34375 192.789062 172.34375 184.976562 Z M 105.242188 149.777344 L 134.035156 168.503906 C 134.496094 168.804688 134.914062 169.191406 135.246094 169.664062 C 136.558594 171.5625 136.074219 174.171875 134.175781 175.480469 L 105.5 192.402344 C 104.78125 192.992188 103.859375 193.347656 102.839844 193.347656 C 100.523438 193.347656 98.644531 191.46875 98.644531 189.152344 L 98.644531 153.210938 L 98.664062 153.210938 C 98.664062 152.386719 98.910156 151.546875 99.417969 150.820312 C 100.746094 148.917969 103.355469 148.457031 105.242188 149.777344 Z M 105.242188 149.777344 " fill-opacity="1" fill-rule="nonzero"/></g><g fill="#000000" fill-opacity="1"><g transform="translate(50.598831, 286.657273)"><g><path d="M 7.984375 -6.515625 L 19.3125 -6.515625 C 19.875 -6.515625 20.296875 -6.492188 20.578125 -6.453125 C 20.859375 -6.421875 21.179688 -6.304688 21.546875 -6.109375 C 22.210938 -5.765625 22.546875 -4.804688 22.546875 -3.234375 C 22.546875 -1.515625 22.09375 -0.507812 21.1875 -0.21875 C 20.769531 -0.0703125 20.128906 0 19.265625 0 L 4.703125 0 C 2.992188 0 1.988281 -0.460938 1.6875 -1.390625 C 1.539062 -1.785156 1.46875 -2.414062 1.46875 -3.28125 L 1.46875 -23.71875 C 1.46875 -24.96875 1.703125 -25.816406 2.171875 -26.265625 C 2.640625 -26.722656 3.519531 -26.953125 4.8125 -26.953125 L 19.3125 -26.953125 C 19.875 -26.953125 20.296875 -26.929688 20.578125 -26.890625 C 20.859375 -26.859375 21.179688 -26.75 21.546875 -26.5625 C 22.210938 -26.21875 22.546875 -25.257812 22.546875 -23.6875 C 22.546875 -21.96875 22.09375 -20.960938 21.1875 -20.671875 C 20.769531 -20.523438 20.128906 -20.453125 19.265625 -20.453125 L 7.984375 -20.453125 L 7.984375 -16.734375 L 15.265625 -16.734375 C 15.828125 -16.734375 16.25 -16.710938 16.53125 -16.671875 C 16.8125 -16.640625 17.140625 -16.523438 17.515625 -16.328125 C 18.171875 -15.984375 18.5 -15.03125 18.5 -13.46875 C 18.5 -11.75 18.035156 -10.742188 17.109375 -10.453125 C 16.691406 -10.296875 16.050781 -10.21875 15.1875 -10.21875 L 7.984375 -10.21875 Z M 7.984375 -6.515625 "/></g></g></g><g fill="#000000" fill-opacity="1"><g transform="translate(74.058112, 286.657273)"><g><path d="M 21 -18.9375 C 22.28125 -18.175781 22.921875 -17.367188 22.921875 -16.515625 C 22.921875 -16.023438 22.671875 -15.347656 22.171875 -14.484375 L 14.5625 -1.4375 C 14.320312 -1.019531 13.929688 -0.644531 13.390625 -0.3125 C 12.847656 0.0195312 12.3125 0.1875 11.78125 0.1875 C 11.257812 0.1875 10.757812 0.0546875 10.28125 -0.203125 C 9.800781 -0.460938 9.460938 -0.726562 9.265625 -1 L 8.9375 -1.390625 L 1.28125 -14.484375 C 0.789062 -15.296875 0.546875 -15.960938 0.546875 -16.484375 C 0.546875 -17.359375 1.1875 -18.175781 2.46875 -18.9375 C 3.394531 -19.476562 4.128906 -19.75 4.671875 -19.75 C 5.210938 -19.75 5.632812 -19.582031 5.9375 -19.25 C 6.25 -18.925781 6.578125 -18.429688 6.921875 -17.765625 L 11.734375 -8.5 L 16.546875 -17.765625 C 16.816406 -18.234375 17.019531 -18.570312 17.15625 -18.78125 C 17.289062 -18.988281 17.503906 -19.195312 17.796875 -19.40625 C 18.097656 -19.613281 18.492188 -19.71875 18.984375 -19.71875 C 19.472656 -19.71875 20.144531 -19.457031 21 -18.9375 Z M 21 -18.9375 "/></g></g></g><g fill="#000000" fill-opacity="1"><g transform="translate(97.517394, 286.657273)"><g><path d="M 20.15625 -12 C 20.15625 -10.5 19.78125 -9.382812 19.03125 -8.65625 C 18.28125 -7.9375 17.453125 -7.578125 16.546875 -7.578125 L 7.828125 -7.578125 C 7.828125 -6.890625 8.234375 -6.3125 9.046875 -5.84375 C 9.859375 -5.382812 10.664062 -5.15625 11.46875 -5.15625 C 12.894531 -5.15625 14.015625 -5.300781 14.828125 -5.59375 L 15.234375 -5.734375 C 15.816406 -6.003906 16.304688 -6.140625 16.703125 -6.140625 C 17.484375 -6.140625 18.15625 -5.585938 18.71875 -4.484375 C 19.039062 -3.828125 19.203125 -3.265625 19.203125 -2.796875 C 19.203125 -0.609375 16.585938 0.484375 11.359375 0.484375 C 9.546875 0.484375 7.929688 0.171875 6.515625 -0.453125 C 5.109375 -1.078125 4.015625 -1.90625 3.234375 -2.9375 C 1.691406 -4.925781 0.921875 -7.144531 0.921875 -9.59375 C 0.921875 -12.6875 1.921875 -15.15625 3.921875 -17 C 5.921875 -18.851562 8.414062 -19.78125 11.40625 -19.78125 C 14.8125 -19.78125 17.3125 -18.582031 18.90625 -16.1875 C 19.738281 -14.90625 20.15625 -13.507812 20.15625 -12 Z M 12.390625 -10.921875 C 13.328125 -10.921875 13.796875 -11.3125 13.796875 -12.09375 C 13.796875 -12.664062 13.578125 -13.125 13.140625 -13.46875 C 12.710938 -13.8125 12.097656 -13.984375 11.296875 -13.984375 C 10.503906 -13.984375 9.71875 -13.65625 8.9375 -13 C 8.15625 -12.351562 7.765625 -11.660156 7.765625 -10.921875 Z M 12.390625 -10.921875 "/></g></g></g><g fill="#000000" fill-opacity="1"><g transform="translate(118.586624, 286.657273)"><g><path d="M 14.640625 -19.15625 C 15.109375 -19.007812 15.492188 -18.757812 15.796875 -18.40625 C 16.097656 -18.050781 16.25 -17.476562 16.25 -16.6875 C 16.25 -15.90625 16.015625 -15.046875 15.546875 -14.109375 C 15.085938 -13.179688 14.414062 -12.71875 13.53125 -12.71875 C 13.09375 -12.71875 12.671875 -12.816406 12.265625 -13.015625 C 11.859375 -13.210938 11.320312 -13.3125 10.65625 -13.3125 C 10 -13.3125 9.378906 -13.078125 8.796875 -12.609375 C 8.222656 -12.148438 7.9375 -11.585938 7.9375 -10.921875 L 7.9375 -3.203125 C 7.9375 -2.640625 7.914062 -2.21875 7.875 -1.9375 C 7.84375 -1.65625 7.734375 -1.328125 7.546875 -0.953125 C 7.171875 -0.316406 6.210938 0 4.671875 0 C 3.492188 0 2.648438 -0.207031 2.140625 -0.625 C 1.742188 -0.96875 1.519531 -1.492188 1.46875 -2.203125 C 1.46875 -2.453125 1.46875 -2.8125 1.46875 -3.28125 L 1.46875 -16.1875 C 1.46875 -16.75 1.484375 -17.171875 1.515625 -17.453125 C 1.554688 -17.734375 1.664062 -18.046875 1.84375 -18.390625 C 2.1875 -19.054688 3.140625 -19.390625 4.703125 -19.390625 C 6.179688 -19.390625 7.101562 -19.101562 7.46875 -18.53125 C 7.738281 -18.144531 7.875 -17.742188 7.875 -17.328125 C 8 -17.492188 8.175781 -17.695312 8.40625 -17.9375 C 8.632812 -18.1875 9.128906 -18.519531 9.890625 -18.9375 C 10.648438 -19.351562 11.316406 -19.5625 11.890625 -19.5625 C 12.472656 -19.5625 12.957031 -19.53125 13.34375 -19.46875 C 13.738281 -19.414062 14.171875 -19.3125 14.640625 -19.15625 Z M 14.640625 -19.15625 "/></g></g></g><g fill="#000000" fill-opacity="1"><g transform="translate(135.390527, 286.657273)"><g><path d="M 19.5 -19.15625 C 20.945312 -18.519531 21.671875 -17.75 21.671875 -16.84375 C 21.671875 -16.40625 21.570312 -15.988281 21.375 -15.59375 C 21.175781 -15.195312 21.078125 -14.988281 21.078125 -14.96875 L 11.4375 6.578125 C 11.238281 7.046875 11.070312 7.398438 10.9375 7.640625 C 10.800781 7.890625 10.585938 8.125 10.296875 8.34375 C 10.003906 8.570312 9.632812 8.6875 9.1875 8.6875 C 8.75 8.6875 8.101562 8.5 7.25 8.125 C 5.800781 7.488281 5.078125 6.726562 5.078125 5.84375 C 5.078125 5.257812 6.253906 2.453125 8.609375 -2.578125 L 1.28125 -14.890625 C 0.789062 -15.703125 0.546875 -16.304688 0.546875 -16.703125 C 0.546875 -17.484375 1.207031 -18.265625 2.53125 -19.046875 C 3.363281 -19.535156 4.015625 -19.78125 4.484375 -19.78125 C 4.953125 -19.78125 5.332031 -19.679688 5.625 -19.484375 C 5.914062 -19.296875 6.128906 -19.097656 6.265625 -18.890625 C 6.398438 -18.679688 7.070312 -17.539062 8.28125 -15.46875 C 9.5 -13.394531 10.660156 -11.460938 11.765625 -9.671875 C 11.890625 -10.066406 12.550781 -11.582031 13.75 -14.21875 C 14.957031 -16.851562 15.601562 -18.253906 15.6875 -18.421875 C 15.769531 -18.597656 15.910156 -18.804688 16.109375 -19.046875 C 16.429688 -19.460938 16.878906 -19.671875 17.453125 -19.671875 C 18.023438 -19.671875 18.707031 -19.5 19.5 -19.15625 Z M 19.5 -19.15625 "/></g></g></g><g fill="#000000" fill-opacity="1"><g transform="translate(157.599628, 286.657273)"><g><path d="M 12.71875 -12.875 L 10.328125 -13.015625 L 10.328125 -7.9375 C 10.328125 -7.28125 10.429688 -6.800781 10.640625 -6.5 C 10.847656 -6.207031 11.238281 -6.0625 11.8125 -6.0625 C 12.394531 -6.0625 12.835938 -6.039062 13.140625 -6 C 13.453125 -5.96875 13.78125 -5.859375 14.125 -5.671875 C 14.6875 -5.347656 14.96875 -4.523438 14.96875 -3.203125 C 14.96875 -1.648438 14.625 -0.707031 13.9375 -0.375 C 13.570312 -0.195312 13.25 -0.0859375 12.96875 -0.046875 C 12.6875 -0.015625 12.273438 0 11.734375 0 C 9.179688 0 7.242188 -0.570312 5.921875 -1.71875 C 4.597656 -2.875 3.9375 -4.828125 3.9375 -7.578125 L 3.9375 -13.015625 C 3.46875 -12.941406 2.960938 -12.90625 2.421875 -12.90625 C 1.890625 -12.90625 1.441406 -13.113281 1.078125 -13.53125 C 0.722656 -13.945312 0.546875 -14.65625 0.546875 -15.65625 C 0.546875 -16.664062 0.609375 -17.394531 0.734375 -17.84375 C 0.859375 -18.300781 1.03125 -18.628906 1.25 -18.828125 C 1.644531 -19.148438 2.132812 -19.3125 2.71875 -19.3125 L 3.9375 -19.15625 L 3.9375 -22.953125 C 3.9375 -23.515625 3.953125 -23.929688 3.984375 -24.203125 C 4.023438 -24.472656 4.144531 -24.765625 4.34375 -25.078125 C 4.65625 -25.691406 5.597656 -26 7.171875 -26 C 8.835938 -26 9.832031 -25.546875 10.15625 -24.640625 C 10.269531 -24.253906 10.328125 -23.628906 10.328125 -22.765625 L 10.328125 -19.15625 C 11.410156 -19.257812 12.226562 -19.3125 12.78125 -19.3125 C 13.332031 -19.3125 13.75 -19.289062 14.03125 -19.25 C 14.3125 -19.21875 14.632812 -19.101562 15 -18.90625 C 15.644531 -18.582031 15.96875 -17.640625 15.96875 -16.078125 C 15.96875 -14.523438 15.632812 -13.578125 14.96875 -13.234375 C 14.601562 -13.066406 14.28125 -12.960938 14 -12.921875 C 13.71875 -12.890625 13.289062 -12.875 12.71875 -12.875 Z M 12.71875 -12.875 "/></g></g></g><g fill="#000000" fill-opacity="1"><g transform="translate(174.109373, 286.657273)"><g><path d="M 12.21875 -19.3125 C 14.664062 -19.3125 16.703125 -18.378906 18.328125 -16.515625 C 19.960938 -14.648438 20.78125 -12.367188 20.78125 -9.671875 L 20.78125 -3.203125 C 20.78125 -2.640625 20.757812 -2.21875 20.71875 -1.9375 C 20.6875 -1.65625 20.570312 -1.328125 20.375 -0.953125 C 20.0625 -0.316406 19.117188 0 17.546875 0 C 16.046875 0 15.113281 -0.316406 14.75 -0.953125 C 14.550781 -1.328125 14.429688 -1.660156 14.390625 -1.953125 C 14.359375 -2.242188 14.34375 -2.6875 14.34375 -3.28125 L 14.34375 -9.703125 C 14.34375 -10.710938 14.0625 -11.5 13.5 -12.0625 C 12.9375 -12.625 12.21875 -12.90625 11.34375 -12.90625 C 10.476562 -12.90625 9.710938 -12.640625 9.046875 -12.109375 C 8.390625 -11.585938 8.007812 -10.992188 7.90625 -10.328125 L 7.90625 -3.203125 C 7.90625 -2.640625 7.882812 -2.21875 7.84375 -1.9375 C 7.8125 -1.65625 7.695312 -1.328125 7.5 -0.953125 C 7.1875 -0.316406 6.242188 0 4.671875 0 C 3.128906 0 2.1875 -0.332031 1.84375 -1 C 1.664062 -1.363281 1.554688 -1.679688 1.515625 -1.953125 C 1.484375 -2.222656 1.46875 -2.648438 1.46875 -3.234375 L 1.46875 -25.234375 C 1.46875 -25.796875 1.484375 -26.21875 1.515625 -26.5 C 1.554688 -26.78125 1.664062 -27.09375 1.84375 -27.4375 C 2.1875 -28.101562 3.140625 -28.4375 4.703125 -28.4375 C 6.253906 -28.4375 7.1875 -28.101562 7.5 -27.4375 C 7.695312 -27.070312 7.8125 -26.75 7.84375 -26.46875 C 7.882812 -26.1875 7.90625 -25.757812 7.90625 -25.1875 L 7.90625 -17.0625 C 9.132812 -18.5625 10.570312 -19.3125 12.21875 -19.3125 Z M 12.21875 -19.3125 "/></g></g></g><g fill="#000000" fill-opacity="1"><g transform="translate(196.355245, 286.657273)"><g><path d="M 1.46875 -16.140625 C 1.46875 -16.710938 1.484375 -17.140625 1.515625 -17.421875 C 1.554688 -17.703125 1.664062 -18.023438 1.84375 -18.390625 C 2.1875 -19.023438 3.140625 -19.34375 4.703125 -19.34375 C 5.878906 -19.34375 6.710938 -19.132812 7.203125 -18.71875 C 7.617188 -18.375 7.84375 -17.847656 7.875 -17.140625 C 7.894531 -16.890625 7.90625 -16.535156 7.90625 -16.078125 L 7.90625 -3.203125 C 7.90625 -2.640625 7.882812 -2.21875 7.84375 -1.9375 C 7.8125 -1.65625 7.695312 -1.328125 7.5 -0.953125 C 7.1875 -0.316406 6.242188 0 4.671875 0 C 3.128906 0 2.1875 -0.332031 1.84375 -1 C 1.664062 -1.363281 1.554688 -1.679688 1.515625 -1.953125 C 1.484375 -2.222656 1.46875 -2.648438 1.46875 -3.234375 Z M 7.515625 -22.96875 C 7.335938 -22.613281 7.015625 -22.363281 6.546875 -22.21875 C 6.078125 -22.070312 5.457031 -22 4.6875 -22 C 3.914062 -22 3.296875 -22.070312 2.828125 -22.21875 C 2.367188 -22.363281 2.046875 -22.617188 1.859375 -22.984375 C 1.671875 -23.359375 1.554688 -23.6875 1.515625 -23.96875 C 1.484375 -24.25 1.46875 -24.671875 1.46875 -25.234375 C 1.46875 -25.796875 1.484375 -26.21875 1.515625 -26.5 C 1.554688 -26.78125 1.664062 -27.09375 1.84375 -27.4375 C 2.1875 -28.101562 3.140625 -28.4375 4.703125 -28.4375 C 6.253906 -28.4375 7.1875 -28.101562 7.5 -27.4375 C 7.695312 -27.070312 7.8125 -26.75 7.84375 -26.46875 C 7.882812 -26.1875 7.90625 -25.757812 7.90625 -25.1875 C 7.90625 -24.625 7.882812 -24.203125 7.84375 -23.921875 C 7.8125 -23.640625 7.703125 -23.320312 7.515625 -22.96875 Z M 7.515625 -22.96875 "/></g></g></g><g fill="#000000" fill-opacity="1"><g transform="translate(205.731603, 286.657273)"><g><path d="M 12.25 -19.390625 C 14.695312 -19.390625 16.734375 -18.445312 18.359375 -16.5625 C 19.992188 -14.6875 20.8125 -12.398438 20.8125 -9.703125 L 20.8125 -3.234375 C 20.8125 -2.671875 20.789062 -2.25 20.75 -1.96875 C 20.71875 -1.6875 20.617188 -1.375 20.453125 -1.03125 C 20.109375 -0.363281 19.148438 -0.03125 17.578125 -0.03125 C 15.835938 -0.03125 14.832031 -0.484375 14.5625 -1.390625 C 14.414062 -1.804688 14.34375 -2.4375 14.34375 -3.28125 L 14.34375 -9.75 C 14.34375 -10.75 14.050781 -11.53125 13.46875 -12.09375 C 12.894531 -12.664062 12.125 -12.953125 11.15625 -12.953125 C 10.1875 -12.953125 9.398438 -12.65625 8.796875 -12.0625 C 8.203125 -11.476562 7.90625 -10.707031 7.90625 -9.75 L 7.90625 -3.234375 C 7.90625 -2.671875 7.882812 -2.25 7.84375 -1.96875 C 7.8125 -1.6875 7.695312 -1.375 7.5 -1.03125 C 7.1875 -0.363281 6.242188 -0.03125 4.671875 -0.03125 C 3.128906 -0.03125 2.1875 -0.363281 1.84375 -1.03125 C 1.664062 -1.394531 1.554688 -1.71875 1.515625 -2 C 1.484375 -2.28125 1.46875 -2.707031 1.46875 -3.28125 L 1.46875 -16.296875 C 1.46875 -16.835938 1.484375 -17.25 1.515625 -17.53125 C 1.554688 -17.8125 1.675781 -18.125 1.875 -18.46875 C 2.21875 -19.082031 3.160156 -19.390625 4.703125 -19.390625 C 6.203125 -19.390625 7.125 -19.101562 7.46875 -18.53125 C 7.707031 -18.113281 7.828125 -17.613281 7.828125 -17.03125 C 7.929688 -17.195312 8.15625 -17.441406 8.5 -17.765625 C 8.84375 -18.085938 9.171875 -18.34375 9.484375 -18.53125 C 10.316406 -19.101562 11.238281 -19.390625 12.25 -19.390625 Z M 12.25 -19.390625 "/></g></g></g><g fill="#000000" fill-opacity="1"><g transform="translate(228.014252, 286.657273)"><g><path d="M 13.75 -2.421875 C 12.820312 -1.203125 11.335938 -0.59375 9.296875 -0.59375 C 7.265625 -0.59375 5.359375 -1.53125 3.578125 -3.40625 C 1.804688 -5.28125 0.921875 -7.46875 0.921875 -9.96875 C 0.921875 -12.46875 1.816406 -14.660156 3.609375 -16.546875 C 5.398438 -18.441406 7.359375 -19.390625 9.484375 -19.390625 C 10.316406 -19.390625 11.078125 -19.234375 11.765625 -18.921875 C 12.453125 -18.617188 12.925781 -18.335938 13.1875 -18.078125 C 13.445312 -17.816406 13.648438 -17.578125 13.796875 -17.359375 C 13.867188 -18.046875 14.117188 -18.566406 14.546875 -18.921875 C 14.972656 -19.273438 15.664062 -19.453125 16.625 -19.453125 C 17.582031 -19.453125 18.28125 -19.378906 18.71875 -19.234375 C 19.164062 -19.085938 19.476562 -18.835938 19.65625 -18.484375 C 19.84375 -18.128906 19.953125 -17.816406 19.984375 -17.546875 C 20.023438 -17.273438 20.046875 -16.859375 20.046875 -16.296875 L 20.046875 -1.0625 C 20.046875 1.75 19.0625 4.019531 17.09375 5.75 C 15.132812 7.476562 12.929688 8.34375 10.484375 8.34375 C 8.617188 8.34375 6.835938 7.890625 5.140625 6.984375 C 3.453125 6.078125 2.609375 5.257812 2.609375 4.53125 C 2.609375 3.570312 2.976562 2.722656 3.71875 1.984375 C 4.175781 1.472656 4.535156 1.117188 4.796875 0.921875 C 5.054688 0.722656 5.359375 0.625 5.703125 0.625 C 6.046875 0.625 6.398438 0.769531 6.765625 1.0625 C 7.941406 1.96875 9.21875 2.421875 10.59375 2.421875 C 11.519531 2.421875 12.273438 2.050781 12.859375 1.3125 C 13.453125 0.582031 13.75 -0.296875 13.75 -1.328125 Z M 7.203125 -9.9375 C 7.203125 -9.144531 7.515625 -8.429688 8.140625 -7.796875 C 8.765625 -7.160156 9.523438 -6.84375 10.421875 -6.84375 C 11.316406 -6.84375 12.054688 -7.164062 12.640625 -7.8125 C 13.234375 -8.46875 13.53125 -9.179688 13.53125 -9.953125 C 13.53125 -10.722656 13.25 -11.441406 12.6875 -12.109375 C 12.125 -12.785156 11.363281 -13.125 10.40625 -13.125 C 9.445312 -13.125 8.671875 -12.789062 8.078125 -12.125 C 7.492188 -11.46875 7.203125 -10.738281 7.203125 -9.9375 Z M 7.203125 -9.9375 "/></g></g></g><g fill="#000000" fill-opacity="1"><g transform="translate(249.52472, 286.657273)"><g/></g></g><g fill="#000000" fill-opacity="1"><g transform="translate(258.827539, 286.657273)"><g><path d="M 17.03125 -25.046875 L 26.953125 -4.53125 C 27.378906 -3.695312 27.59375 -3.066406 27.59375 -2.640625 C 27.59375 -1.765625 26.878906 -0.96875 25.453125 -0.25 C 24.617188 0.164062 23.960938 0.375 23.484375 0.375 C 23.003906 0.375 22.609375 0.257812 22.296875 0.03125 C 21.992188 -0.1875 21.773438 -0.414062 21.640625 -0.65625 C 21.503906 -0.90625 21.316406 -1.273438 21.078125 -1.765625 L 19.15625 -5.734375 L 8.96875 -5.734375 L 7.0625 -1.765625 C 6.8125 -1.273438 6.617188 -0.921875 6.484375 -0.703125 C 6.359375 -0.484375 6.140625 -0.253906 5.828125 -0.015625 C 5.523438 0.210938 5.132812 0.328125 4.65625 0.328125 C 4.175781 0.328125 3.519531 0.117188 2.6875 -0.296875 C 1.257812 -0.984375 0.546875 -1.765625 0.546875 -2.640625 C 0.546875 -3.066406 0.753906 -3.695312 1.171875 -4.53125 L 11.109375 -25.078125 C 11.378906 -25.648438 11.789062 -26.101562 12.34375 -26.4375 C 12.894531 -26.78125 13.476562 -26.953125 14.09375 -26.953125 C 15.414062 -26.953125 16.394531 -26.316406 17.03125 -25.046875 Z M 14.046875 -16.21875 L 11.625 -11.1875 L 16.515625 -11.1875 Z M 14.046875 -16.21875 "/></g></g></g><g fill="#000000" fill-opacity="1"><g transform="translate(286.956616, 286.657273)"><g><path d="M 1.46875 5.265625 L 1.46875 -16.21875 C 1.46875 -16.78125 1.484375 -17.195312 1.515625 -17.46875 C 1.554688 -17.738281 1.664062 -18.046875 1.84375 -18.390625 C 2.1875 -19.054688 3.003906 -19.390625 4.296875 -19.390625 C 5.597656 -19.390625 6.472656 -19.222656 6.921875 -18.890625 C 7.378906 -18.554688 7.644531 -18.070312 7.71875 -17.4375 C 8.65625 -18.707031 10.117188 -19.34375 12.109375 -19.34375 C 14.109375 -19.34375 16.003906 -18.398438 17.796875 -16.515625 C 19.585938 -14.628906 20.484375 -12.429688 20.484375 -9.921875 C 20.484375 -7.421875 19.59375 -5.226562 17.8125 -3.34375 C 16.039062 -1.457031 14.148438 -0.515625 12.140625 -0.515625 C 10.128906 -0.515625 8.671875 -1.078125 7.765625 -2.203125 L 7.765625 5.21875 C 7.765625 5.78125 7.742188 6.195312 7.703125 6.46875 C 7.671875 6.738281 7.5625 7.050781 7.375 7.40625 C 7.1875 7.757812 6.875 8.007812 6.4375 8.15625 C 6 8.3125 5.398438 8.390625 4.640625 8.390625 C 3.878906 8.390625 3.269531 8.3125 2.8125 8.15625 C 2.363281 8.007812 2.046875 7.765625 1.859375 7.421875 C 1.671875 7.085938 1.554688 6.785156 1.515625 6.515625 C 1.484375 6.242188 1.46875 5.828125 1.46875 5.265625 Z M 8.75 -12.0625 C 8.1875 -11.40625 7.90625 -10.679688 7.90625 -9.890625 C 7.90625 -9.109375 8.191406 -8.390625 8.765625 -7.734375 C 9.347656 -7.085938 10.085938 -6.765625 10.984375 -6.765625 C 11.878906 -6.765625 12.640625 -7.082031 13.265625 -7.71875 C 13.890625 -8.363281 14.203125 -9.085938 14.203125 -9.890625 C 14.203125 -10.703125 13.90625 -11.429688 13.3125 -12.078125 C 12.726562 -12.734375 11.960938 -13.0625 11.015625 -13.0625 C 10.066406 -13.0625 9.3125 -12.726562 8.75 -12.0625 Z M 8.75 -12.0625 "/></g></g></g><g fill="#000000" fill-opacity="1"><g transform="translate(308.356774, 286.657273)"><g><path d="M 1.46875 5.265625 L 1.46875 -16.21875 C 1.46875 -16.78125 1.484375 -17.195312 1.515625 -17.46875 C 1.554688 -17.738281 1.664062 -18.046875 1.84375 -18.390625 C 2.1875 -19.054688 3.003906 -19.390625 4.296875 -19.390625 C 5.597656 -19.390625 6.472656 -19.222656 6.921875 -18.890625 C 7.378906 -18.554688 7.644531 -18.070312 7.71875 -17.4375 C 8.65625 -18.707031 10.117188 -19.34375 12.109375 -19.34375 C 14.109375 -19.34375 16.003906 -18.398438 17.796875 -16.515625 C 19.585938 -14.628906 20.484375 -12.429688 20.484375 -9.921875 C 20.484375 -7.421875 19.59375 -5.226562 17.8125 -3.34375 C 16.039062 -1.457031 14.148438 -0.515625 12.140625 -0.515625 C 10.128906 -0.515625 8.671875 -1.078125 7.765625 -2.203125 L 7.765625 5.21875 C 7.765625 5.78125 7.742188 6.195312 7.703125 6.46875 C 7.671875 6.738281 7.5625 7.050781 7.375 7.40625 C 7.1875 7.757812 6.875 8.007812 6.4375 8.15625 C 6 8.3125 5.398438 8.390625 4.640625 8.390625 C 3.878906 8.390625 3.269531 8.3125 2.8125 8.15625 C 2.363281 8.007812 2.046875 7.765625 1.859375 7.421875 C 1.671875 7.085938 1.554688 6.785156 1.515625 6.515625 C 1.484375 6.242188 1.46875 5.828125 1.46875 5.265625 Z M 8.75 -12.0625 C 8.1875 -11.40625 7.90625 -10.679688 7.90625 -9.890625 C 7.90625 -9.109375 8.191406 -8.390625 8.765625 -7.734375 C 9.347656 -7.085938 10.085938 -6.765625 10.984375 -6.765625 C 11.878906 -6.765625 12.640625 -7.082031 13.265625 -7.71875 C 13.890625 -8.363281 14.203125 -9.085938 14.203125 -9.890625 C 14.203125 -10.703125 13.90625 -11.429688 13.3125 -12.078125 C 12.726562 -12.734375 11.960938 -13.0625 11.015625 -13.0625 C 10.066406 -13.0625 9.3125 -12.726562 8.75 -12.0625 Z M 8.75 -12.0625 "/></g></g></g></svg>